# xmcd
#
# Track frame offsets: 
#        150
#        20007
#        37964
#        59399
#        84710
#        112826
#        149317
#        167138
#
# Disc length: 2558 seconds
#
# Revision: 3
# Processed by: cddbd v1.5.2PL0 Copyright (c) Steve Scherf et al.
# Submitted via: ExactAudioCopy v0.99pb4
#
DISCID=6409fc08
DTITLE=Sonata Arctica - Open Air II
DYEAR=2011
DGENRE=Metal
TTITLE0=Paid In Full
TTITLE1=8th Commandment
TTITLE2=Replica
TTITLE3=Tallulah
TTITLE4=Caleb
TTITLE5=White Pearl, Black Oceans
TTITLE6=Draw Me
TTITLE7=Fullmoon
EXTD=Sonata Arctica - Live in Finland - CD2
EXTT0=
EXTT1=
EXTT2=
EXTT3=
EXTT4=
EXTT5=
EXTT6=
EXTT7=
PLAYORDER=
